<svg xmlns="http://www.w3.org/2000/svg" xmlns:xlink="http://www.w3.org/1999/xlink" fill="none" version="1.1" width="12.25" height="12.25" viewBox="0 0 12.25 12.25"><g><path d="M6.125,12.25C2.74258,12.25,0,9.50742,0,6.125C0,2.74258,2.74258,0,6.125,0C9.50742,0,12.25,2.74258,12.25,6.125C12.25,9.50742,9.50742,12.25,6.125,12.25ZM8.46973,8.27148C8.46973,8.27148,6.69238,6.15234,6.69238,6.15234C6.69238,6.15234,8.46836,4.03457,8.46836,4.03457C8.48477,4.01406,8.49434,3.98945,8.49434,3.96348C8.49434,3.90195,8.44512,3.8541,8.38496,3.8541C8.38496,3.8541,7.48262,3.8582,7.48262,3.8582C7.48262,3.8582,6.125,5.47695,6.125,5.47695C6.125,5.47695,4.76738,3.85684,4.76738,3.85684C4.76738,3.85684,3.86367,3.85273,3.86367,3.85273C3.80352,3.85273,3.7543,3.90195,3.7543,3.96211C3.75459,3.98808,3.76375,4.01316,3.78027,4.0332C3.78027,4.0332,5.55898,6.15098,5.55898,6.15098C5.55898,6.15098,3.78027,8.27012,3.78027,8.27012C3.76387,8.29063,3.7543,8.31523,3.7543,8.34121C3.7543,8.40273,3.80352,8.45059,3.86367,8.45059C3.86367,8.45059,4.76738,8.44648,4.76738,8.44648C4.76738,8.44648,6.125,6.82773,6.125,6.82773C6.125,6.82773,7.48398,8.44785,7.48398,8.44785C7.48398,8.44785,8.38633,8.45195,8.38633,8.45195C8.44649,8.45195,8.4957,8.40273,8.4957,8.34258C8.4957,8.3166,8.48613,8.29199,8.46973,8.27148Z" fill="#f5222d" fill-opacity="1"/></g></svg>