<svg xmlns="http://www.w3.org/2000/svg" xmlns:xlink="http://www.w3.org/1999/xlink" fill="none" version="1.1" width="121.2626953125" height="99.4921875" viewBox="0 0 121.2626953125 99.4921875"><g><g><g><g><path d="M105.2066,91.15801294799805Q105.2066,91.36260294799804,105.1529,91.56694294799804Q105.0991,91.77129294799805,104.9918,91.97490294799805Q104.8845,92.17851294799804,104.7238,92.38089294799805Q104.5631,92.58327294799804,104.3495,92.78393294799804Q104.1359,92.98460294799804,103.8699,93.18310294799805Q103.6038,93.38150294799804,103.286,93.57730294799805Q102.9681,93.77310294799804,102.5992,93.96570294799804Q102.2304,94.15830294799805,101.8113,94.34740294799805Q101.3923,94.53640294799804,100.9242,94.72130294799805Q100.456,94.90630294799804,99.9399,95.08670294799805Q99.4237,95.26720294799804,98.8608,95.44260294799804Q98.2979,95.61810294799804,97.6896,95.78820294799804Q97.0812,95.95840294799805,96.429,96.12270294799805Q95.7767,96.28700294799805,95.0821,96.44520294799804Q94.3875,96.60330294799805,93.6521,96.75490294799805Q92.9168,96.90650294799805,92.1426,97.05120294799805Q91.3683,97.19580294799805,90.557,97.33320294799805Q89.7457,97.47060294799805,88.8993,97.60040294799805Q88.0529,97.73020294799805,87.1734,97.85210294799805Q86.294,97.97400294799804,85.3835,98.08760294799805Q84.4731,98.20130294799804,83.534,98.30650294799804Q82.5948,98.41170294799805,81.6291,98.50810294799805Q80.6635,98.60460294799805,79.6736,98.69200294799805Q78.68379999999999,98.77950294799805,77.6722,98.85780294799804Q76.6606,98.93610294799805,75.6297,99.00500294799805Q74.59870000000001,99.07400294799805,73.5509,99.13330294799805Q72.5031,99.19270294799804,71.441,99.24240294799804Q70.3789,99.29220294799805,69.305,99.33210294799804Q68.231,99.37200294799806,67.14789999999999,99.40200294799804Q66.06479999999999,99.43200294799804,64.9752,99.45210294799804Q63.8855,99.47210294799805,62.7919,99.48220294799805Q61.6982,99.49220294799804,60.6033,99.49220294799804Q59.5083,99.49220294799804,58.4147,99.48220294799805Q57.3211,99.47210294799805,56.2314,99.45210294799804Q55.1417,99.43200294799804,54.0586,99.40200294799804Q52.9755,99.37200294799806,51.9016,99.33210294799804Q50.8277,99.29220294799805,49.7656,99.24240294799804Q48.7034,99.19270294799804,47.6556,99.13330294799805Q46.6078,99.07400294799805,45.576899999999995,99.00500294799805Q44.5459,98.93610294799805,43.5343,98.85780294799804Q42.5227,98.77950294799805,41.5329,98.69200294799805Q40.543099999999995,98.60460294799805,39.5774,98.50810294799805Q38.6118,98.41170294799805,37.6726,98.30650294799804Q36.7334,98.20130294799804,35.823,98.08760294799805Q34.9126,97.97400294799804,34.033100000000005,97.85210294799805Q33.1537,97.73020294799805,32.3073,97.60040294799805Q31.460900000000002,97.47060294799805,30.6495,97.33320294799805Q29.8382,97.19580294799805,29.064,97.05120294799805Q28.2898,96.90650294799805,27.5544,96.75490294799805Q26.8191,96.60330294799805,26.124499999999998,96.44520294799804Q25.429850000000002,96.28700294799805,24.77759,96.12270294799805Q24.125329999999998,95.95840294799805,23.51701,95.78820294799804Q22.90869,95.61810294799804,22.34577,95.44260294799804Q21.78285,95.26720294799804,21.2667,95.08670294799805Q20.75054,94.90630294799804,20.28239,94.72130294799805Q19.814239999999998,94.53640294799804,19.395220000000002,94.34740294799805Q18.9762,94.15830294799805,18.60733,93.96570294799804Q18.23845,93.77310294799804,17.9206,93.57730294799805Q17.60276,93.38150294799804,17.3367,93.18310294799805Q17.07065,92.98460294799804,16.85704,92.78393294799804Q16.643426,92.58327294799804,16.482763,92.38089294799805Q16.322101,92.17851294799804,16.214777,91.97490294799805Q16.107453,91.77129294799805,16.0537266,91.56694294799804Q16,91.36260294799804,16,91.15801294799805Q16,90.95341294799805,16.0537266,90.74907294799804Q16.107453,90.54472294799805,16.214777,90.34111294799804Q16.322101,90.13750294799804,16.482763,89.93512294799805Q16.643426,89.73274294799805,16.85704,89.53208294799805Q17.07065,89.33142294799805,17.3367,89.13296294799805Q17.60276,88.93450294799804,17.9206,88.73871294799805Q18.23845,88.54293294799805,18.60733,88.35030294799805Q18.9762,88.15766294799805,19.395220000000002,87.96864294799805Q19.814239999999998,87.77962294799805,20.28239,87.59467294799805Q20.75054,87.40972294799805,21.2667,87.22929294799805Q21.78285,87.04885294799804,22.34577,86.87337294799805Q22.90869,86.69788294799805,23.51701,86.52777294799805Q24.125329999999998,86.35766294799805,24.77759,86.19332294799804Q25.429850000000002,86.02899294799805,26.124499999999998,85.87084294799804Q26.8191,85.71269294799805,27.5544,85.56110294799805Q28.2898,85.40950294799805,29.064,85.26483294799804Q29.8382,85.12016294799804,30.6495,84.98277294799804Q31.460900000000002,84.84537294799804,32.3073,84.71558294799804Q33.1537,84.58578294799804,34.033100000000005,84.46391294799804Q34.9126,84.34203294799805,35.823,84.22837294799805Q36.7334,84.11470294799804,37.6726,84.00952294799805Q38.6118,83.90434294799805,39.5774,83.80789494799805Q40.543099999999995,83.71145094799805,41.5329,83.62397594799805Q42.5227,83.53650094799805,43.5343,83.45820694799805Q44.5459,83.37991194799805,45.576899999999995,83.31098694799805Q46.6078,83.24206094799804,47.6556,83.18267094799805Q48.7034,83.12328094799804,49.7656,83.07356894799804Q50.8277,83.02385694799804,51.9016,82.98394194799805Q52.9755,82.94402794799805,54.0586,82.91400814799805Q55.1417,82.88398804799805,56.2314,82.86393444799805Q57.3211,82.84388074799804,58.4147,82.83384184799804Q59.5083,82.82380294799805,60.6033,82.82380294799805Q61.6982,82.82380294799805,62.7919,82.83384184799804Q63.8855,82.84388074799804,64.9752,82.86393444799805Q66.0649,82.88398804799805,67.148,82.91400814799805Q68.231,82.94402794799805,69.305,82.98394194799805Q70.3789,83.02385694799804,71.441,83.07356894799804Q72.5031,83.12328094799804,73.5509,83.18267094799805Q74.59870000000001,83.24206094799804,75.6297,83.31098694799805Q76.6606,83.37991194799805,77.6722,83.45820694799805Q78.68379999999999,83.53650094799805,79.6736,83.62397594799805Q80.6635,83.71145094799805,81.6291,83.80789494799805Q82.5948,83.90434294799805,83.534,84.00952294799805Q84.4731,84.11470294799804,85.3835,84.22837294799805Q86.294,84.34203294799805,87.1734,84.46391294799804Q88.0529,84.58578294799804,88.8993,84.71558294799804Q89.7457,84.84537294799804,90.557,84.98277294799804Q91.3683,85.12016294799804,92.1426,85.26483294799804Q92.9168,85.40950294799805,93.6521,85.56109294799805Q94.3875,85.71269294799805,95.0821,85.87084294799804Q95.7767,86.02899294799805,96.429,86.19332294799804Q97.0812,86.35766294799805,97.6896,86.52777294799805Q98.2979,86.69788294799805,98.8608,86.87337294799805Q99.4237,87.04885294799804,99.9399,87.22929294799805Q100.456,87.40972294799805,100.9242,87.59467294799805Q101.3923,87.77962294799805,101.8113,87.96864294799805Q102.2304,88.15766294799805,102.5992,88.35030294799805Q102.9681,88.54293294799805,103.286,88.73871294799805Q103.6038,88.93450294799804,103.8699,89.13296294799805Q104.1359,89.33142294799805,104.3495,89.53208294799805Q104.5631,89.73274294799805,104.7238,89.93512294799805Q104.8845,90.13750294799804,104.9918,90.34111294799804Q105.0991,90.54472294799805,105.1528,90.74907294799804Q105.2066,90.95341294799805,105.2066,91.15801294799805Z" fill="#F5F5F7" fill-opacity="0.800000011920929"/></g><g><path d="M96.2859984375,76.79410724487305C96.2859984375,76.79410724487305,24.9208984375,76.79410724487305,24.9208984375,76.79410724487305C24.9208984375,76.79410724487305,24.9208984375,66.67370724487304,24.9208984375,66.67370724487304C24.9208984375,66.67370724487304,40.6603984375,47.30201724487305,40.6603984375,47.30201724487305C41.4155984375,46.390180244873044,42.5195984375,45.83820724487305,43.6813984375,45.83820724487305C43.6813984375,45.83820724487305,77.5234984375,45.83820724487305,77.5234984375,45.83820724487305C78.68599843749999,45.83820724487305,79.7899984375,46.390180244873044,80.5451984375,47.30201724487305C80.5451984375,47.30201724487305,96.2853984375,66.67370724487304,96.2853984375,66.67370724487304C96.2853984375,66.67370724487304,96.2859984375,66.67370724487304,96.2859984375,66.67370724487304C96.2859984375,66.67370724487304,96.2859984375,76.79410724487305,96.2859984375,76.79410724487305Z" fill-rule="evenodd" fill="#AEB8C2" fill-opacity="1"/></g><g></g><g><path d="M36.39576437060547,21.606293697998048C35.902247370605465,22.099811697998046,35.62499237060547,22.769161697998047,35.62499237060547,23.467101697998046C35.62499237060547,23.467101697998046,35.62499237060547,84.87762169799805,35.62499237060547,84.87762169799805C35.62499237060547,85.57552169799804,35.902247370605465,86.24492169799805,36.39576437060547,86.73842169799805C36.88928237060547,87.23192169799805,37.558632370605466,87.50922169799804,38.25657237060547,87.50922169799804C38.25657237060547,87.50922169799804,82.94929237060546,87.50922169799804,82.94929237060546,87.50922169799804C83.64729237060547,87.50922169799804,84.31659237060546,87.23192169799805,84.81019237060548,86.73842169799805C85.30369237060546,86.24492169799805,85.58089237060547,85.57552169799804,85.58089237060547,84.87762169799805C85.58089237060547,84.87762169799805,85.58089237060547,23.467101697998046,85.58089237060547,23.467101697998046C85.58089237060547,22.769161697998047,85.30369237060546,22.099811697998046,84.81019237060548,21.606293697998048C84.31659237060546,21.112776697998047,83.64729237060547,20.835521697998047,82.94929237060546,20.835521697998047C82.94929237060546,20.835521697998047,38.25657237060547,20.835521697998047,38.25657237060547,20.835521697998047C38.25657237060547,20.835521697998047,38.25657237060547,20.835521697998047,38.25657237060547,20.835521697998047C37.558632370605466,20.835521697998047,36.88928237060547,21.112776697998047,36.39576437060547,21.606293697998048Z" fill-rule="evenodd" fill="#F5F5F7" fill-opacity="1"/></g><g><path d="M43.14721015625,27.769003401123047C42.90051015625,28.015761401123047,42.76181015625,28.350437401123045,42.76181015625,28.699407401123047C42.76181015625,28.699407401123047,42.76181015625,45.11851740112304,42.76181015625,45.11851740112304C42.76181015625,45.46741740112304,42.90051015625,45.80211740112305,43.14721015625,46.04891740112305C43.394010156250005,46.295617401123046,43.72871015625,46.434317401123046,44.07761015625,46.434317401123046C44.07761015625,46.434317401123046,77.12831015625,46.434317401123046,77.12831015625,46.434317401123046C77.47731015625,46.434317401123046,77.81191015625001,46.295617401123046,78.05871015625,46.04891740112305C78.30551015625,45.80211740112305,78.44411015624999,45.46741740112304,78.44411015624999,45.11851740112304C78.44411015624999,45.11851740112304,78.44411015624999,28.699407401123047,78.44411015624999,28.699407401123047C78.44411015624999,28.350437401123045,78.30551015625,28.015761401123047,78.05871015625,27.769003401123047C77.81191015625001,27.522245401123048,77.47731015625,27.383617401123047,77.12831015625,27.383617401123047C77.12831015625,27.383617401123047,44.07761015625,27.383617401123047,44.07761015625,27.383617401123047C44.07761015625,27.383617401123047,44.07761015625,27.383617401123047,44.07761015625,27.383617401123047C43.72871015625,27.383617401123047,43.394010156250005,27.522245401123048,43.14721015625,27.769003401123047ZM43.19771015625,54.01291740112305C42.91861015625,54.29201740112305,42.76181015625,54.67051740112305,42.76181015625,55.06521740112305C42.76181015625,55.45991740112305,42.91861015625,55.838417401123046,43.19771015625,56.117517401123045C43.47681015625,56.39651740112305,43.85531015625,56.553317401123046,44.25001015625,56.553317401123046C44.25001015625,56.553317401123046,76.95591015625,56.553317401123046,76.95591015625,56.553317401123046C77.35061015625,56.553317401123046,77.72911015625,56.39651740112305,78.00821015625,56.117517401123045C78.28731015625,55.838417401123046,78.44411015624999,55.45991740112305,78.44411015624999,55.06521740112305C78.44411015624999,54.67051740112305,78.28731015625,54.29201740112305,78.00821015625,54.01291740112305C77.72911015625,53.73381740112305,77.35061015625,53.577017401123044,76.95591015625,53.577017401123044C76.95591015625,53.577017401123044,44.25001015625,53.577017401123044,44.25001015625,53.577017401123044C44.25001015625,53.577017401123044,44.25001015625,53.577017401123044,44.25001015625,53.577017401123044C43.85531015625,53.577017401123044,43.47681015625,53.73381740112305,43.19771015625,54.01291740112305ZM43.197510156250004,61.75181740112305C42.91831015625,62.031017401123044,42.76151015625,62.40961740112305,42.76151015625,62.80431740112304C42.76151015625,63.19911740112305,42.91831015625,63.577717401123046,43.197510156250004,63.856817401123045C43.476610156250004,64.13601740112304,43.855210156249996,64.29281740112305,44.25001015625,64.29281740112305C44.25001015625,64.29281740112305,76.95591015625,64.29281740112305,76.95591015625,64.29281740112305C77.35071015625,64.29281740112305,77.72931015625,64.13601740112304,78.00851015625,63.856817401123045C78.28761015625,63.577717401123046,78.44441015625,63.19911740112305,78.44441015625,62.80431740112304C78.44441015625,62.40961740112305,78.28761015625,62.031017401123044,78.00851015625,61.75181740112305C77.72931015625,61.47271740112305,77.35071015625,61.31581740112305,76.95591015625,61.31581740112305C76.95591015625,61.31581740112305,44.25001015625,61.31581740112305,44.25001015625,61.31581740112305C44.25001015625,61.31581740112305,44.25001015625,61.31581740112305,44.25001015625,61.31581740112305C43.855210156249996,61.31581740112305,43.476610156250004,61.47271740112305,43.197510156250004,61.75181740112305ZM96.28551015625,88.75861740112305C96.28551015625,88.75861740112305,96.28551015625,66.67371740112304,96.28551015625,66.67371740112304C96.28551015625,66.67371740112304,78.97111015625,66.67371740112304,78.97111015625,66.67371740112304C77.05861015625,66.67371740112304,75.51711015625,68.28821740112305,75.51711015625,70.24351740112306C75.51711015625,70.24351740112306,75.51711015625,70.25141740112305,75.51711015625,70.25141740112305C75.51711015625,72.20661740112305,73.95791015625,73.79941740112304,72.04541015625,73.79941740112304C72.04541015625,73.79941740112304,49.16051015625,73.79941740112304,49.16051015625,73.79941740112304C47.248010156250004,73.79941740112304,45.68881015625,72.22111740112305,45.68881015625,70.26651740112305C45.68881015625,70.26651740112305,45.68881015625,70.24021740112305,45.68881015625,70.24021740112305C45.68881015625,68.28491740112304,44.147410156250004,66.67441740112304,42.234910156249995,66.67441740112304C42.234910156249995,66.67441740112304,24.92041039169,66.67441740112304,24.92041039169,66.67441740112304C24.92041039169,66.67441740112304,24.92041039169,88.75791740112305,24.92041039169,88.75791740112305C24.92028613725,89.15501740112305,24.96934385625,89.55061740112305,25.06646315625,89.93561740112304C25.57567315625,91.95531740112305,27.36646015625,93.46191740112305,29.49673015625,93.46191740112305C29.49673015625,93.46191740112305,91.70921015625,93.46191740112305,91.70921015625,93.46191740112305C93.83951015625,93.46191740112305,95.63031015625,91.95601740112305,96.14011015625,89.93561740112304C96.14011015625,89.93561740112304,96.14011015625,89.93561740112304,96.14011015625,89.93561740112304C96.23491015625,89.55861740112304,96.28551015625,89.16451740112305,96.28551015625,88.75861740112305Z" fill-rule="evenodd" fill="#DCE0E6" fill-opacity="1"/></g></g><g><path d="M121.26284375,11.9059C121.26284375,5.33026,114.60564375,0,106.39574375,0C98.18391375,0,91.52734375,5.33026,91.52734375,11.9059C91.52734375,14.4546,92.52733975,16.8164,94.23063375,18.7533C94.23063375,18.7533,92.95629375,22.8368,92.95629375,22.8368C92.91938375,22.9551,92.91660375,23.0813,92.94825375,23.2011C92.97991375,23.3208,93.04473375,23.4292,93.13525375,23.5137C93.22576375,23.5982,93.33830375,23.6555,93.45992375,23.6789C93.58154375,23.7023,93.70730375,23.6909,93.82273375,23.6461C93.82273375,23.6461,98.31616375,21.9026,98.31616375,21.9026C100.64247375,23.1105,103.41614375,23.8118,106.39514375,23.8118C114.60624375,23.8118,121.26284375,18.4816,121.26284375,11.9059Z" fill-rule="evenodd" fill="#DCE0E6" fill-opacity="1"/></g><g><g><path d="M114.12700641601562,12.20394925567627Q114.12700641601562,12.294939255676269,114.11797641601562,12.38547925567627Q114.10895641601563,12.47601925567627,114.09098641601562,12.56525925567627Q114.07302641601562,12.65448925567627,114.04629641601562,12.741549255676269Q114.01956641601562,12.82861925567627,113.98432641601562,12.91266925567627Q113.94909641601562,12.99672925567627,113.90568641601563,13.07696925567627Q113.86227641601562,13.15720925567627,113.81112641601563,13.23284925567627Q113.75996641601563,13.308499255676269,113.70154641601563,13.37882925567627Q113.64313641601562,13.44915925567627,113.57802641601563,13.513499255676269Q113.51291641601563,13.577829255676269,113.44173641601563,13.63554925567627Q113.37055641601563,13.69326925567627,113.29399641601563,13.74380925567627Q113.21743641601563,13.79435925567627,113.13622641601563,13.83724925567627Q113.05501641601562,13.88013925567627,112.96994641601563,13.91494925567627Q112.88487641601563,13.94976925567627,112.79675641601563,13.97617925567627Q112.70864641601563,14.00258925567627,112.61833641601562,14.02033925567627Q112.52801641601563,14.038089255676269,112.43638641601562,14.047009255676269Q112.34474641601562,14.055929255676268,112.25266641601563,14.055929255676268Q112.16058641601562,14.055929255676268,112.06894641601562,14.047009255676269Q111.97731641601563,14.038089255676269,111.88699641601562,14.02033925567627Q111.79668641601563,14.00258925567627,111.70857641601563,13.97617925567627Q111.62045641601563,13.94976925567627,111.53538641601563,13.91494925567627Q111.45031641601562,13.88013925567627,111.36910841601562,13.83724925567627Q111.28790141601563,13.79435925567627,111.21133841601562,13.74380925567627Q111.13477641601563,13.69326925567627,111.06359741601563,13.63554925567627Q110.99241841601562,13.577829255676269,110.92730741601562,13.513499255676269Q110.86219741601562,13.44915925567627,110.80378241601562,13.37882925567627Q110.74536641601563,13.308499255676269,110.69420941601562,13.23284925567627Q110.64305241601562,13.15720925567627,110.59964641601563,13.07696925567627Q110.55623941601563,12.99672925567627,110.52100241601562,12.91266925567627Q110.48576441601563,12.82861925567627,110.45903481601563,12.741549255676269Q110.43230531601563,12.65448925567627,110.41434131601562,12.56525925567627Q110.39637731601563,12.47601925567627,110.38735187601563,12.38547925567627Q110.37832641601562,12.294939255676269,110.37832641601562,12.20394925567627Q110.37832641601562,12.11296925567627,110.38735187601563,12.02242925567627Q110.39637731601563,11.93187925567627,110.41434131601562,11.84264925567627Q110.43230531601563,11.75341925567627,110.45903481601563,11.66634925567627Q110.48576441601563,11.579289255676269,110.52100241601562,11.49522925567627Q110.55623941601563,11.41117925567627,110.59964641601563,11.33093825567627Q110.64305241601562,11.25070025567627,110.69420941601562,11.17505125567627Q110.74536641601563,11.09940325567627,110.80378241601562,11.02907325567627Q110.86219741601562,10.95874325567627,110.92730741601562,10.894409255676269Q110.99241841601562,10.83007625567627,111.06359741601563,10.77235825567627Q111.13477641601563,10.71463925567627,111.21133941601562,10.664093255676269Q111.28790141601563,10.613546255676269,111.36910841601562,10.57065825567627Q111.45031641601562,10.527769255676269,111.53538641601563,10.49295225567627Q111.62045641601563,10.45813525567627,111.70857641601563,10.43172455567627Q111.79668641601563,10.40531405567627,111.88699641601562,10.38756435567627Q111.97731641601563,10.36981475567627,112.06894641601562,10.360897015676269Q112.16058641601562,10.35197925567627,112.25266641601563,10.35197925567627Q112.34474641601562,10.35197925567627,112.43638641601562,10.360897015676269Q112.52801641601563,10.36981475567627,112.61833641601562,10.38756435567627Q112.70864641601563,10.40531405567627,112.79675641601563,10.43172465567627Q112.88487641601563,10.45813525567627,112.96994641601563,10.49295225567627Q113.05501641601562,10.527769255676269,113.13622641601563,10.57065825567627Q113.21743641601563,10.613546255676269,113.29399641601563,10.664093255676269Q113.37055641601563,10.71463925567627,113.44173641601563,10.77235825567627Q113.51291641601563,10.83007625567627,113.57802641601563,10.894409255676269Q113.64313641601562,10.95874325567627,113.70154641601563,11.02907325567627Q113.75996641601563,11.09940325567627,113.81112641601563,11.17505125567627Q113.86227641601562,11.25070025567627,113.90568641601563,11.33093825567627Q113.94909641601562,11.41117925567627,113.98432641601562,11.49522925567627Q114.01956641601562,11.579289255676269,114.04629641601562,11.66634925567627Q114.07302641601562,11.75341925567627,114.09098641601562,11.84264925567627Q114.10895641601563,11.93187925567627,114.11797641601562,12.02242925567627Q114.12700641601562,12.11296925567627,114.12700641601562,12.20394925567627Z" fill="#FFFFFF" fill-opacity="1"/></g><g><path d="M98.66445922851562,13.82421456817627C98.66445922851562,13.82421456817627,102.41314922851562,13.82421456817627,102.41314922851562,13.82421456817627C102.41314922851562,13.82421456817627,100.57103922851563,10.58342456817627,100.57103922851563,10.58342456817627C100.57103922851563,10.58342456817627,98.66445922851562,13.82421456817627,98.66445922851562,13.82421456817627ZM108.03551922851562,13.82421456817627C108.03551922851562,13.82421456817627,108.03551922851562,10.58342456817627,108.03551922851562,10.58342456817627C108.03551922851562,10.58342456817627,104.75590922851562,10.58342456817627,104.75590922851562,10.58342456817627C104.75590922851562,10.58342456817627,104.75590922851562,13.82421456817627,104.75590922851562,13.82421456817627C104.75590922851562,13.82421456817627,108.03551922851562,13.82421456817627,108.03551922851562,13.82421456817627Z" fill-rule="evenodd" fill="#FFFFFF" fill-opacity="1"/></g></g></g></g></svg>